<?xml version="1.0" encoding="UTF-8" standalone="no"?>
<svg
   width="100"
   height="100"
   viewBox="0 0 100 100"
   version="1.1"
   id="svg2"
   sodipodi:docname="icon.svg"
   inkscape:version="1.4.2 (f4327f4, 2025-05-13)"
   inkscape:export-filename="icon.png"
   inkscape:export-xdpi="491.51999"
   inkscape:export-ydpi="491.51999"
   xml:space="preserve"
   xmlns:inkscape="http://www.inkscape.org/namespaces/inkscape"
   xmlns:sodipodi="http://sodipodi.sourceforge.net/DTD/sodipodi-0.dtd"
   xmlns:xlink="http://www.w3.org/1999/xlink"
   xmlns="http://www.w3.org/2000/svg"
   xmlns:svg="http://www.w3.org/2000/svg"><defs
     id="defs2"><linearGradient
       id="linearGradient6"
       inkscape:collect="always"><stop
         style="stop-color:#ffd346;stop-opacity:1;"
         offset="0"
         id="stop6" /><stop
         style="stop-color:#ad2a46;stop-opacity:1;"
         offset="1"
         id="stop7" /></linearGradient><linearGradient
       inkscape:collect="always"
       xlink:href="#linearGradient6"
       id="linearGradient7"
       x1="1246.6315"
       y1="1419.6777"
       x2="1559.7448"
       y2="1732.791"
       gradientUnits="userSpaceOnUse"
       gradientTransform="translate(-447.24316,-2.1459645e-5)" /></defs><sodipodi:namedview
     id="namedview2"
     pagecolor="#505050"
     bordercolor="#ffffff"
     borderopacity="1"
     inkscape:showpageshadow="0"
     inkscape:pageopacity="0"
     inkscape:pagecheckerboard="1"
     inkscape:deskcolor="#505050"
     inkscape:zoom="2.8284271"
     inkscape:cx="-26.693281"
     inkscape:cy="34.825009"
     inkscape:window-width="1920"
     inkscape:window-height="1009"
     inkscape:window-x="-8"
     inkscape:window-y="-8"
     inkscape:window-maximized="1"
     inkscape:current-layer="g2" /><g
     id="g2"
     inkscape:label="logo"
     transform="matrix(0.10940802,0,0,0.10940802,-28.811464,-96.676079)"><path
       id="path1"
       style="fill:#1bd96a;fill-opacity:1;stroke-width:2.27092"
       d="m 661.86427,883.97329 c -37.92427,-1.61235 -76.7541,2.40259 -115.35963,12.73527 -203.74663,54.5244 -324.64884,263.68014 -270.05595,467.15434 5.10945,19.0547 76.556,265.9907 351.24848,280.51 v -98.1817 c -75.23292,-4.707 -145.31602,-39.5748 -194.4444,-95.5124 l 113.14029,-67.8766 64.89946,72.2575 144.72654,-45.8255 86.3621,-105.89 -24.93589,-56.0912 -83.70427,26.4975 -38.33268,42.106 -53.86425,14.3238 c -0.0681,-0.021 -38.19428,-40.5328 -38.19428,-40.5328 l -18.83168,-52.391 38.425,-39.4907 53.77577,-16.9161 61.65698,-62.4494 -38.7212,-47.6676 -133.75674,28.8168 -105.82458,108.7093 33.76709,89.543 -112.06719,67.2417 c -3.31549,-8.7657 -6.22169,-17.7818 -8.71967,-27.0244 -40.2861,-150.1983 48.96072,-304.5501 199.34082,-344.81344 24.02625,-6.4267 48.14217,-9.5368 71.89594,-9.6504 z m 98.49348,17.41241 -17.57782,99.5627 c 82.95665,30.5892 150.24214,99.5571 174.85883,191.3249 7.6144,28.3805 10.6048,56.9098 9.43119,84.7889 h 98.87825 c 0.4276,-160.6208 -97.46496,-322.51664 -265.59045,-375.6765 z"
       sodipodi:nodetypes="cccccccccccccccccccccccccccccccccc" /><ellipse
       style="fill:none;stroke:url(#linearGradient7);stroke-width:112.77;stroke-linejoin:round;stroke-miterlimit:0;stroke-dasharray:none;paint-order:normal"
       id="path2"
       cx="955.94482"
       cy="1576.234"
       rx="165.01947"
       ry="165.01944" /></g></svg>
