<?xml version="1.0" encoding="UTF-8" standalone="no"?>
<svg
   width="400"
   height="120"
   viewBox="0 0 400 120"
   version="1.1"
   id="svg2"
   sodipodi:docname="logo.svg"
   inkscape:version="1.4.2 (f4327f4, 2025-05-13)"
   inkscape:export-filename="large_banner.png"
   inkscape:export-xdpi="96"
   inkscape:export-ydpi="96"
   xml:space="preserve"
   xmlns:inkscape="http://www.inkscape.org/namespaces/inkscape"
   xmlns:sodipodi="http://sodipodi.sourceforge.net/DTD/sodipodi-0.dtd"
   xmlns:xlink="http://www.w3.org/1999/xlink"
   xmlns="http://www.w3.org/2000/svg"
   xmlns:svg="http://www.w3.org/2000/svg"><defs
     id="defs2"><linearGradient
       inkscape:collect="always"
       xlink:href="#linearGradient6"
       id="linearGradient7"
       x1="1246.6315"
       y1="1419.6777"
       x2="1559.7448"
       y2="1732.791"
       gradientUnits="userSpaceOnUse"
       gradientTransform="matrix(0.10940802,0,0,0.10940802,-77.518265,-76.676046)" /><linearGradient
       id="linearGradient6"
       inkscape:collect="always"><stop
         style="stop-color:#ffd346;stop-opacity:1;"
         offset="0"
         id="stop6" /><stop
         style="stop-color:#ad2a46;stop-opacity:1;"
         offset="1"
         id="stop7" /></linearGradient></defs><sodipodi:namedview
     id="namedview2"
     pagecolor="#505050"
     bordercolor="#ffffff"
     borderopacity="1"
     inkscape:showpageshadow="0"
     inkscape:pageopacity="0"
     inkscape:pagecheckerboard="1"
     inkscape:deskcolor="#505050"
     inkscape:zoom="0.7850195"
     inkscape:cx="41.400245"
     inkscape:cy="-5.7323417"
     inkscape:window-width="1920"
     inkscape:window-height="1009"
     inkscape:window-x="-8"
     inkscape:window-y="-8"
     inkscape:window-maximized="1"
     inkscape:current-layer="svg2" /><text
     xml:space="preserve"
     style="font-style:normal;font-variant:normal;font-weight:600;font-stretch:normal;font-size:65.7891px;line-height:0.8;font-family:Inter;-inkscape-font-specification:'Inter Semi-Bold';text-align:start;writing-mode:lr-tb;direction:ltr;text-anchor:start;fill:#ffffff;fill-opacity:1;stroke-width:0.548245;stroke-linejoin:round;stroke-miterlimit:0;paint-order:markers fill stroke"
     x="110.11256"
     y="57.407627"
     id="text1"
     inkscape:label="text"><tspan
       sodipodi:role="line"
       id="tspan1"
       x="110.11256"
       y="57.407627"
       style="font-style:normal;font-variant:normal;font-weight:600;font-stretch:normal;line-height:0.8;font-family:Inter;-inkscape-font-specification:'Inter Semi-Bold';direction:ltr;stroke-width:0.548245">modrinth</tspan><tspan
       sodipodi:role="line"
       x="110.11256"
       y="110.03891"
       id="tspan2"
       style="font-style:normal;font-variant:normal;font-weight:600;font-stretch:normal;line-height:0.8;font-family:Inter;-inkscape-font-specification:'Inter Semi-Bold';direction:ltr;stroke-width:0.548245">scout</tspan></text><path
     id="path1-9"
     style="fill:#1bd96a;fill-opacity:1;stroke-width:0.248457"
     d="m 43.826983,20.037725 c -4.149219,-0.17641 -8.397514,0.26286 -12.621268,1.39334 -22.2915152,5.96541 -35.5191871,28.84872 -29.5462871,51.11043 0.559015,2.08474 8.3758401,29.101515 38.4294011,30.690035 V 92.489675 c -8.231085,-0.51498 -15.898738,-4.3298 -21.273776,-10.44982 l 12.378454,-7.42625 7.100521,7.90555 15.834244,-5.01368 9.448705,-11.58521 -2.72818,-6.13683 -9.157923,2.89904 -4.193903,4.60674 -5.893181,1.56713 c -0.0074,-0.002 -4.17876,-4.43461 -4.17876,-4.43461 l -2.060337,-5.732 4.204003,-4.32059 5.883501,-1.85076 6.745768,-6.83247 -4.23641,-5.21521 -14.63406,3.15278 -11.578057,11.89367 3.69439,9.79673 -12.261049,7.35678 c -0.362741,-0.95904 -0.680703,-1.94547 -0.954002,-2.95669 -4.4076226,-16.4329 5.356696,-33.32022 21.809484,-37.72535 2.628664,-0.70314 5.267139,-1.04341 7.865992,-1.05584 z m 10.775974,1.90506 -1.923152,10.89295 c 9.076122,3.34671 16.437692,10.89235 19.130962,20.93248 0.83307,3.10506 1.16025,6.22639 1.03184,9.27659 h 10.81808 c 0.0468,-17.57321 -10.66345,-35.28591 -29.05773,-41.10202 z"
     sodipodi:nodetypes="cccccccccccccccccccccccccccccccccc" /><ellipse
     style="fill:none;stroke:url(#linearGradient7);stroke-width:12.3379;stroke-linejoin:round;stroke-miterlimit:0;stroke-dasharray:none;paint-order:normal"
     id="path2"
     cx="76.001762"
     cy="95.776596"
     rx="18.054453"
     ry="18.054451" /></svg>
